G04 Layer: TopLayer*
G04 EasyEDA v6.5.22, 2022-11-10 15:31:46*
G04 b7be4e29126e4417a89479274d17f270,4d866ca34c7e4626bfa8f39187415ab3,10*
G04 Gerber Generator version 0.2*
G04 Scale: 100 percent, Rotated: No, Reflected: No *
G04 Dimensions in millimeters *
G04 leading zeros omitted , absolute positions ,4 integer and 5 decimal *
%FSLAX45Y45*%
%MOMM*%

%ADD10C,1.6000*%
%ADD11C,0.8000*%
%ADD12C,1.2000*%
%ADD13C,1.0000*%
%ADD14C,1.4000*%
%ADD15C,4.0000*%
%ADD16C,1.5000*%
%ADD17C,2.0000*%
%ADD18R,1.6000X3.0000*%
%ADD19R,4.0000X1.6000*%
%ADD20R,2.0000X3.0000*%
%ADD21R,1.6000X4.0000*%
%ADD22R,1.6000X2.5000*%
%ADD23R,2.2000X2.2000*%
%ADD24R,5.0000X1.5000*%
%ADD25C,3.0000*%
%ADD26R,1.5750X1.5750*%
%ADD27C,1.5750*%
%ADD28R,4.0000X1.7000*%
%ADD29R,1.6000X1.6000*%
%ADD30R,2.7000X5.0000*%
%ADD31R,2.8000X1.6000*%
%ADD32R,3.5000X5.0000*%
%ADD33R,2.2000X1.6000*%
%ADD34R,1.2000X1.6000*%
%ADD35R,1.2000X1.2000*%
%ADD36R,1.2000X1.4000*%
%ADD37C,1.5240*%
%ADD38R,1.5240X1.5240*%
%ADD39R,1.5000X1.5000*%
%ADD40R,0.0197X1.5000*%

%LPD*%
G36*
X-5168900Y3769004D02*
G01*
X-5172811Y3769766D01*
X-5176113Y3772001D01*
X-5178298Y3775252D01*
X-5179110Y3779164D01*
X-5179110Y3877157D01*
X-5178094Y3881526D01*
X-5175300Y3885082D01*
X-5171287Y3887063D01*
X-5165750Y3886860D01*
X-5152644Y3885946D01*
X-4753356Y3885946D01*
X-4740249Y3886860D01*
X-4727803Y3889552D01*
X-4715814Y3894023D01*
X-4704638Y3900170D01*
X-4694377Y3907790D01*
X-4685385Y3916832D01*
X-4677714Y3927043D01*
X-4676495Y3929278D01*
X-4673904Y3932377D01*
X-4670298Y3934206D01*
X-4658106Y3937558D01*
X-4654854Y3938676D01*
X-4644136Y3943146D01*
X-4640986Y3944670D01*
X-4627930Y3952138D01*
X-4618532Y3958945D01*
X-4615840Y3961129D01*
X-4607255Y3969004D01*
X-4517796Y4058513D01*
X-4514494Y4060698D01*
X-4510582Y4061510D01*
X-4333697Y4061510D01*
X-4329938Y4060799D01*
X-4326788Y4058767D01*
X-4312818Y4045813D01*
X-4297730Y4034434D01*
X-4281627Y4024579D01*
X-4264609Y4016349D01*
X-4246880Y4009898D01*
X-4228541Y4005224D01*
X-4209846Y4002430D01*
X-4191000Y4001465D01*
X-4172153Y4002430D01*
X-4153458Y4005224D01*
X-4135120Y4009898D01*
X-4117390Y4016349D01*
X-4100372Y4024579D01*
X-4084269Y4034434D01*
X-4069181Y4045813D01*
X-4055364Y4058665D01*
X-4042867Y4072839D01*
X-4031792Y4088180D01*
X-4022394Y4104538D01*
X-4014622Y4121759D01*
X-4008577Y4139641D01*
X-4004360Y4158081D01*
X-4002024Y4176826D01*
X-4001160Y4181348D01*
X-3998976Y4184548D01*
X-3995674Y4186682D01*
X-3991864Y4187444D01*
X-3566160Y4187444D01*
X-3562248Y4186682D01*
X-3558997Y4184446D01*
X-3556762Y4181144D01*
X-3556000Y4177284D01*
X-3556000Y3781958D01*
X-3556762Y3778097D01*
X-3558946Y3774795D01*
X-3562248Y3772560D01*
X-3566160Y3771798D01*
G37*

%LPD*%
G36*
X-3416757Y3730853D02*
G01*
X-3421227Y3730955D01*
X-3425240Y3732936D01*
X-3427984Y3736441D01*
X-3429000Y3740810D01*
X-3429000Y4180687D01*
X-3428187Y4184599D01*
X-3425951Y4187901D01*
X-3422599Y4190136D01*
X-3418687Y4190847D01*
X-3191459Y4187647D01*
X-3187446Y4186783D01*
X-3184144Y4184396D01*
X-3182010Y4180840D01*
X-3181502Y4176776D01*
X-3182620Y4172813D01*
X-3409797Y3736136D01*
X-3412693Y3732733D01*
G37*

%LPD*%
G36*
X-3991406Y3162300D02*
G01*
X-3995115Y3163011D01*
X-3998315Y3164992D01*
X-4000550Y3168040D01*
X-4001515Y3171698D01*
X-4002989Y3191459D01*
X-4006240Y3210052D01*
X-4011371Y3228238D01*
X-4018279Y3245815D01*
X-4026915Y3262629D01*
X-4037126Y3278479D01*
X-4048912Y3293262D01*
X-4062120Y3306775D01*
X-4076598Y3318916D01*
X-4092194Y3329584D01*
X-4108805Y3338626D01*
X-4126179Y3345942D01*
X-4144264Y3351529D01*
X-4162755Y3355238D01*
X-4181551Y3357118D01*
X-4192879Y3357118D01*
X-4196791Y3357930D01*
X-4200042Y3360115D01*
X-4229811Y3389884D01*
X-4238396Y3397758D01*
X-4241088Y3399942D01*
X-4250486Y3406749D01*
X-4263542Y3414217D01*
X-4266692Y3415741D01*
X-4277410Y3420211D01*
X-4280662Y3421329D01*
X-4291838Y3424478D01*
X-4295190Y3425240D01*
X-4306671Y3427069D01*
X-4310126Y3427425D01*
X-4321759Y3427933D01*
X-4669739Y3427933D01*
X-4672838Y3428441D01*
X-4675632Y3429812D01*
X-4677867Y3432048D01*
X-4685385Y3442055D01*
X-4694377Y3451047D01*
X-4704638Y3458718D01*
X-4715814Y3464814D01*
X-4727803Y3469284D01*
X-4740249Y3472027D01*
X-4753356Y3472942D01*
X-5152644Y3472942D01*
X-5165750Y3472027D01*
X-5171287Y3471824D01*
X-5175300Y3473805D01*
X-5178094Y3477310D01*
X-5179110Y3481730D01*
X-5179110Y3623157D01*
X-5178094Y3627577D01*
X-5175300Y3631082D01*
X-5171287Y3633063D01*
X-5165750Y3632860D01*
X-5152644Y3631946D01*
X-4753356Y3631946D01*
X-4740249Y3632860D01*
X-4727803Y3635603D01*
X-4725873Y3636314D01*
X-4722317Y3636924D01*
X-3864508Y3636924D01*
X-3855465Y3637178D01*
X-3846626Y3637889D01*
X-3837838Y3639007D01*
X-3829100Y3640632D01*
X-3820464Y3642715D01*
X-3811981Y3645255D01*
X-3803599Y3648201D01*
X-3795420Y3651605D01*
X-3787394Y3655415D01*
X-3779672Y3659632D01*
X-3774795Y3662679D01*
X-3771290Y3664102D01*
X-3767531Y3664102D01*
X-3762298Y3663137D01*
X-3738778Y3660698D01*
X-3715207Y3660241D01*
X-3691636Y3661664D01*
X-3668217Y3665067D01*
X-3645204Y3670300D01*
X-3622700Y3677412D01*
X-3612794Y3681476D01*
X-3608984Y3682237D01*
X-3187750Y3682949D01*
X-3183788Y3682187D01*
X-3180486Y3679901D01*
X-3178302Y3676548D01*
X-3177540Y3672636D01*
X-3178403Y3668725D01*
X-3180689Y3665423D01*
X-3248863Y3600450D01*
X-3251555Y3598621D01*
X-3264306Y3592576D01*
X-3280257Y3583025D01*
X-3295192Y3571951D01*
X-3309162Y3559251D01*
X-3537407Y3331006D01*
X-3550107Y3317036D01*
X-3560368Y3303422D01*
X-3705453Y3165094D01*
X-3708704Y3163011D01*
X-3712464Y3162300D01*
G37*

%LPD*%
G36*
X-3564636Y1181963D02*
G01*
X-4722774Y1182116D01*
X-4740249Y1186027D01*
X-4753356Y1186942D01*
X-5152644Y1186942D01*
X-5165750Y1186027D01*
X-5171287Y1185824D01*
X-5175300Y1187805D01*
X-5178094Y1191310D01*
X-5179110Y1195730D01*
X-5179110Y1337157D01*
X-5178094Y1341577D01*
X-5175300Y1345082D01*
X-5171287Y1347063D01*
X-5165750Y1346860D01*
X-5152644Y1345946D01*
X-4753356Y1345946D01*
X-4740249Y1346860D01*
X-4727803Y1349603D01*
X-4715814Y1354023D01*
X-4704638Y1360170D01*
X-4694377Y1367790D01*
X-4685385Y1376832D01*
X-4677714Y1387043D01*
X-4676495Y1389278D01*
X-4673904Y1392377D01*
X-4670298Y1394206D01*
X-4658106Y1397558D01*
X-4654854Y1398676D01*
X-4644136Y1403146D01*
X-4640986Y1404670D01*
X-4627930Y1412138D01*
X-4618532Y1418945D01*
X-4615840Y1421130D01*
X-4607255Y1429004D01*
X-4520793Y1515516D01*
X-4517542Y1517700D01*
X-4513681Y1518462D01*
X-4332325Y1520139D01*
X-4328566Y1519478D01*
X-4325315Y1517446D01*
X-4312818Y1505813D01*
X-4297730Y1494434D01*
X-4281627Y1484579D01*
X-4264609Y1476400D01*
X-4246880Y1469898D01*
X-4228541Y1465275D01*
X-4209846Y1462430D01*
X-4191000Y1461516D01*
X-4172153Y1462430D01*
X-4153458Y1465275D01*
X-4135120Y1469898D01*
X-4117390Y1476400D01*
X-4100372Y1484579D01*
X-4084269Y1494434D01*
X-4069181Y1505813D01*
X-4055364Y1518666D01*
X-4042867Y1532839D01*
X-4031792Y1548180D01*
X-4022394Y1564538D01*
X-4018838Y1572361D01*
X-4016603Y1575562D01*
X-4013301Y1577644D01*
X-4009491Y1578356D01*
X-3671620Y1575765D01*
X-3667760Y1575003D01*
X-3664508Y1572818D01*
X-3549904Y1458163D01*
X-3547618Y1454759D01*
X-3546906Y1450695D01*
X-3554476Y1191818D01*
X-3555339Y1188059D01*
X-3557524Y1184859D01*
X-3560826Y1182725D01*
G37*

%LPD*%
G36*
X-3882694Y506933D02*
G01*
X-3886606Y507746D01*
X-3889908Y509930D01*
X-3998772Y618794D01*
X-4001008Y622198D01*
X-4001719Y626211D01*
X-4001566Y632612D01*
X-4002989Y651459D01*
X-4006240Y670052D01*
X-4011371Y688238D01*
X-4018279Y705815D01*
X-4026915Y722630D01*
X-4037126Y738479D01*
X-4048912Y753262D01*
X-4062120Y766775D01*
X-4076598Y778916D01*
X-4092194Y789584D01*
X-4108805Y798626D01*
X-4126179Y805942D01*
X-4144264Y811530D01*
X-4162755Y815289D01*
X-4181551Y817168D01*
X-4192879Y817168D01*
X-4196791Y817930D01*
X-4200093Y820115D01*
X-4229811Y849884D01*
X-4238396Y857758D01*
X-4241088Y859942D01*
X-4250486Y866749D01*
X-4263542Y874217D01*
X-4266692Y875741D01*
X-4277410Y880211D01*
X-4280662Y881329D01*
X-4291838Y884478D01*
X-4295190Y885240D01*
X-4306671Y887069D01*
X-4310126Y887425D01*
X-4321759Y887933D01*
X-4669739Y887933D01*
X-4672838Y888441D01*
X-4675632Y889812D01*
X-4677867Y892048D01*
X-4685385Y902055D01*
X-4694377Y911047D01*
X-4704638Y918718D01*
X-4715814Y924814D01*
X-4727803Y929284D01*
X-4740249Y932027D01*
X-4753356Y932942D01*
X-5152644Y932942D01*
X-5165750Y932027D01*
X-5171287Y931824D01*
X-5175300Y933805D01*
X-5178094Y937310D01*
X-5179110Y941730D01*
X-5179110Y1039774D01*
X-5178298Y1043635D01*
X-5176113Y1046937D01*
X-5172811Y1049172D01*
X-5168950Y1049934D01*
X-3556304Y1049934D01*
X-3543452Y1050798D01*
X-3531006Y1053490D01*
X-3519017Y1057910D01*
X-3507790Y1064006D01*
X-3499205Y1070254D01*
X-3489960Y1079042D01*
X-3488486Y1080668D01*
X-3480815Y1090879D01*
X-3475583Y1100074D01*
X-3470808Y1111910D01*
X-3467760Y1124356D01*
X-3466846Y1133195D01*
X-3465829Y1136802D01*
X-3463594Y1139799D01*
X-3460445Y1141780D01*
X-3456736Y1142441D01*
X-3159760Y1143000D01*
X-3155899Y1142187D01*
X-3152597Y1140002D01*
X-3150362Y1136700D01*
X-3149600Y1132840D01*
X-3149600Y812749D01*
X-3150362Y808888D01*
X-3152546Y805586D01*
X-3155848Y803402D01*
X-3159760Y802589D01*
X-3387140Y802589D01*
X-3398774Y802081D01*
X-3402228Y801725D01*
X-3413658Y799896D01*
X-3417062Y799134D01*
X-3428237Y795985D01*
X-3431489Y794867D01*
X-3442208Y790397D01*
X-3445357Y788873D01*
X-3455466Y783234D01*
X-3458362Y781405D01*
X-3467760Y774598D01*
X-3470452Y772414D01*
X-3479088Y764540D01*
X-3733647Y509930D01*
X-3736949Y507746D01*
X-3740810Y506984D01*
G37*

%LPD*%
G36*
X-5551932Y-1781556D02*
G01*
X-5555792Y-1780793D01*
X-5559094Y-1778558D01*
X-5561330Y-1775307D01*
X-5562092Y-1771396D01*
X-5562092Y-1125474D01*
X-5561380Y-1121765D01*
X-5559298Y-1118514D01*
X-5556199Y-1116279D01*
X-5552490Y-1115364D01*
X-5548731Y-1115872D01*
X-5545378Y-1117701D01*
X-5541365Y-1121105D01*
X-5532018Y-1127861D01*
X-5529122Y-1129690D01*
X-5519013Y-1135329D01*
X-5515864Y-1136853D01*
X-5505145Y-1141323D01*
X-5501894Y-1142441D01*
X-5490718Y-1145590D01*
X-5487314Y-1146352D01*
X-5475884Y-1148181D01*
X-5472430Y-1148537D01*
X-5460796Y-1149045D01*
X-5236260Y-1149045D01*
X-5233162Y-1149553D01*
X-5230368Y-1150924D01*
X-5228132Y-1153160D01*
X-5220614Y-1163167D01*
X-5211572Y-1172159D01*
X-5201361Y-1179830D01*
X-5190185Y-1185976D01*
X-5178196Y-1190396D01*
X-5165750Y-1193139D01*
X-5152644Y-1194054D01*
X-4753356Y-1194054D01*
X-4740249Y-1193139D01*
X-4727803Y-1190396D01*
X-4715814Y-1185976D01*
X-4704638Y-1179830D01*
X-4694377Y-1172159D01*
X-4685385Y-1163167D01*
X-4677867Y-1153160D01*
X-4675632Y-1150924D01*
X-4672838Y-1149553D01*
X-4669739Y-1149045D01*
X-4321759Y-1149045D01*
X-4310126Y-1148537D01*
X-4306671Y-1148181D01*
X-4295190Y-1146352D01*
X-4291838Y-1145590D01*
X-4280662Y-1142441D01*
X-4277410Y-1141323D01*
X-4266692Y-1136853D01*
X-4263542Y-1135329D01*
X-4250486Y-1127861D01*
X-4241088Y-1121054D01*
X-4238396Y-1118870D01*
X-4229811Y-1110996D01*
X-4200245Y-1081379D01*
X-4196689Y-1079093D01*
X-4192524Y-1078433D01*
X-4172153Y-1077569D01*
X-4153458Y-1074724D01*
X-4135120Y-1070102D01*
X-4117390Y-1063599D01*
X-4100372Y-1055420D01*
X-4084269Y-1045565D01*
X-4069181Y-1034186D01*
X-4055364Y-1021334D01*
X-4042867Y-1007160D01*
X-4031792Y-991819D01*
X-4026408Y-982471D01*
X-4024833Y-980389D01*
X-3862730Y-818286D01*
X-3859428Y-816102D01*
X-3855516Y-815289D01*
X-3439160Y-815289D01*
X-3435248Y-816102D01*
X-3431997Y-818286D01*
X-3429762Y-821588D01*
X-3429000Y-825449D01*
X-3429000Y-920597D01*
X-3429711Y-924356D01*
X-3431743Y-927557D01*
X-3434791Y-929792D01*
X-3438448Y-930757D01*
X-3441750Y-930960D01*
X-3454196Y-933703D01*
X-3466185Y-938174D01*
X-3477361Y-944270D01*
X-3487572Y-951941D01*
X-3496614Y-960932D01*
X-3504285Y-971194D01*
X-3510381Y-982370D01*
X-3514851Y-994359D01*
X-3517595Y-1006805D01*
X-3518509Y-1019911D01*
X-3518509Y-1300886D01*
X-3519271Y-1304798D01*
X-3521506Y-1308049D01*
X-3524758Y-1310284D01*
X-3528669Y-1311046D01*
X-5079644Y-1311046D01*
X-5092750Y-1311960D01*
X-5105196Y-1314704D01*
X-5117185Y-1319174D01*
X-5128361Y-1325270D01*
X-5138572Y-1332941D01*
X-5147614Y-1341932D01*
X-5153304Y-1349603D01*
X-5156606Y-1352397D01*
X-5160721Y-1353616D01*
X-5165750Y-1353972D01*
X-5178196Y-1356715D01*
X-5190185Y-1361135D01*
X-5201361Y-1367282D01*
X-5211572Y-1374952D01*
X-5220614Y-1383944D01*
X-5228285Y-1394155D01*
X-5234381Y-1405382D01*
X-5238851Y-1417370D01*
X-5241544Y-1429816D01*
X-5242509Y-1442923D01*
X-5242509Y-1612188D01*
X-5241544Y-1625295D01*
X-5238851Y-1637741D01*
X-5234127Y-1650390D01*
X-5233517Y-1655165D01*
X-5234127Y-1658721D01*
X-5238851Y-1671370D01*
X-5241544Y-1683816D01*
X-5242509Y-1696923D01*
X-5242509Y-1771396D01*
X-5243271Y-1775307D01*
X-5245455Y-1778558D01*
X-5248757Y-1780793D01*
X-5252669Y-1781556D01*
G37*

%LPD*%
G36*
X-3848150Y-2067610D02*
G01*
X-3852062Y-2066798D01*
X-3855364Y-2064613D01*
X-3998722Y-1921205D01*
X-4001008Y-1917801D01*
X-4001719Y-1913788D01*
X-4001566Y-1907387D01*
X-4002989Y-1888540D01*
X-4006240Y-1869948D01*
X-4011371Y-1851761D01*
X-4018279Y-1834184D01*
X-4026865Y-1817370D01*
X-4037126Y-1801520D01*
X-4048912Y-1786737D01*
X-4062120Y-1773224D01*
X-4076598Y-1761083D01*
X-4092194Y-1750415D01*
X-4108754Y-1741373D01*
X-4126179Y-1734057D01*
X-4144213Y-1728470D01*
X-4162755Y-1724710D01*
X-4181551Y-1722831D01*
X-4192879Y-1722831D01*
X-4196791Y-1722069D01*
X-4200093Y-1719884D01*
X-4229811Y-1690116D01*
X-4238396Y-1682242D01*
X-4241088Y-1680057D01*
X-4250486Y-1673250D01*
X-4263542Y-1665782D01*
X-4266692Y-1664258D01*
X-4277410Y-1659788D01*
X-4280662Y-1658670D01*
X-4291838Y-1655521D01*
X-4295190Y-1654759D01*
X-4306671Y-1652930D01*
X-4310126Y-1652574D01*
X-4321759Y-1652066D01*
X-4669739Y-1652066D01*
X-4672838Y-1651558D01*
X-4675632Y-1650187D01*
X-4677867Y-1647952D01*
X-4685385Y-1637944D01*
X-4694377Y-1628952D01*
X-4704638Y-1621282D01*
X-4715814Y-1615135D01*
X-4727803Y-1610715D01*
X-4740249Y-1607972D01*
X-4753356Y-1607058D01*
X-5069840Y-1607058D01*
X-5073700Y-1606296D01*
X-5077002Y-1604060D01*
X-5079238Y-1600758D01*
X-5080000Y-1596898D01*
X-5080000Y-1458214D01*
X-5079238Y-1454353D01*
X-5077002Y-1451051D01*
X-5073700Y-1448816D01*
X-5069840Y-1448054D01*
X-4753356Y-1448054D01*
X-4740249Y-1447139D01*
X-4727803Y-1444396D01*
X-4725873Y-1443685D01*
X-4722317Y-1443075D01*
X-3826408Y-1443075D01*
X-3817365Y-1442821D01*
X-3808526Y-1442110D01*
X-3799738Y-1440992D01*
X-3791000Y-1439367D01*
X-3782364Y-1437284D01*
X-3773881Y-1434744D01*
X-3765550Y-1431798D01*
X-3755948Y-1427734D01*
X-3753104Y-1426972D01*
X-3750106Y-1427073D01*
X-3736898Y-1429562D01*
X-3713378Y-1431950D01*
X-3689756Y-1432458D01*
X-3666185Y-1430985D01*
X-3642817Y-1427632D01*
X-3619804Y-1422400D01*
X-3597300Y-1415237D01*
X-3575405Y-1406347D01*
X-3566210Y-1401673D01*
X-3563975Y-1400810D01*
X-3561587Y-1400556D01*
X-3430015Y-1400556D01*
X-3429000Y-1399540D01*
X-3429000Y-1257300D01*
X-3428339Y-1253642D01*
X-3421481Y-1235811D01*
X-3414826Y-1213154D01*
X-3410051Y-1190040D01*
X-3407156Y-1166571D01*
X-3406190Y-1143000D01*
X-3407156Y-1119378D01*
X-3410051Y-1095959D01*
X-3414826Y-1072845D01*
X-3417315Y-1064209D01*
X-3417722Y-1060500D01*
X-3416706Y-1056894D01*
X-3414471Y-1053896D01*
X-3411270Y-1051915D01*
X-3407613Y-1051204D01*
X-3204464Y-1051204D01*
X-3200400Y-1052068D01*
X-3196996Y-1054506D01*
X-3194862Y-1058113D01*
X-3194354Y-1062278D01*
X-3195624Y-1066292D01*
X-3199282Y-1072997D01*
X-3206292Y-1089456D01*
X-3211423Y-1106627D01*
X-3214776Y-1124204D01*
X-3216198Y-1142085D01*
X-3215690Y-1159967D01*
X-3213354Y-1177747D01*
X-3209086Y-1195120D01*
X-3202990Y-1211986D01*
X-3195167Y-1228090D01*
X-3185668Y-1243279D01*
X-3177184Y-1254099D01*
X-3175558Y-1257046D01*
X-3175000Y-1260348D01*
X-3175000Y-2026462D01*
X-3175660Y-2030069D01*
X-3177590Y-2033219D01*
X-3180486Y-2035505D01*
X-3184042Y-2036572D01*
X-3463899Y-2067610D01*
G37*

%LPD*%
G36*
X-5323840Y-6099556D02*
G01*
X-5327700Y-6098794D01*
X-5331002Y-6096558D01*
X-5333238Y-6093256D01*
X-5334000Y-6089396D01*
X-5334000Y-5601716D01*
X-5333238Y-5597804D01*
X-5331002Y-5594502D01*
X-5327700Y-5592318D01*
X-5323840Y-5591556D01*
X-5237784Y-5591556D01*
X-5234228Y-5592165D01*
X-5231130Y-5594045D01*
X-5220614Y-5608167D01*
X-5211572Y-5617159D01*
X-5201361Y-5624830D01*
X-5190185Y-5630926D01*
X-5178196Y-5635396D01*
X-5165750Y-5638139D01*
X-5152644Y-5639054D01*
X-5143195Y-5639409D01*
X-4750155Y-5639409D01*
X-4737049Y-5638444D01*
X-4724603Y-5635752D01*
X-4712614Y-5631281D01*
X-4701387Y-5625185D01*
X-4691176Y-5617514D01*
X-4682185Y-5608472D01*
X-4674514Y-5598261D01*
X-4668367Y-5587085D01*
X-4663948Y-5575096D01*
X-4661204Y-5562600D01*
X-4660290Y-5549544D01*
X-4660290Y-5220716D01*
X-4659528Y-5216804D01*
X-4657293Y-5213502D01*
X-4653991Y-5211318D01*
X-4650130Y-5210556D01*
X-4332325Y-5210556D01*
X-4328363Y-5211368D01*
X-4325061Y-5213604D01*
X-4319879Y-5218887D01*
X-4305401Y-5231028D01*
X-4289806Y-5241696D01*
X-4273194Y-5250738D01*
X-4255820Y-5258054D01*
X-4237736Y-5263642D01*
X-4219244Y-5267350D01*
X-4200448Y-5269230D01*
X-4181551Y-5269230D01*
X-4162755Y-5267350D01*
X-4144264Y-5263642D01*
X-4126179Y-5258054D01*
X-4108805Y-5250738D01*
X-4092194Y-5241696D01*
X-4076598Y-5231028D01*
X-4062120Y-5218887D01*
X-4056938Y-5213604D01*
X-4053636Y-5211368D01*
X-4049674Y-5210556D01*
X-3820160Y-5210556D01*
X-3816248Y-5211318D01*
X-3812997Y-5213502D01*
X-3810762Y-5216804D01*
X-3810000Y-5220716D01*
X-3810000Y-5431891D01*
X-3810762Y-5435803D01*
X-3812997Y-5439105D01*
X-4434941Y-6061049D01*
X-4438243Y-6063284D01*
X-4442155Y-6064046D01*
X-4706112Y-6064046D01*
X-4708601Y-6063742D01*
X-4710988Y-6062776D01*
X-4715814Y-6060135D01*
X-4727803Y-6055664D01*
X-4740249Y-6052972D01*
X-4753356Y-6052058D01*
X-5152644Y-6052058D01*
X-5165750Y-6052972D01*
X-5178196Y-6055664D01*
X-5190185Y-6060135D01*
X-5201361Y-6066282D01*
X-5211572Y-6073902D01*
X-5220614Y-6082944D01*
X-5231130Y-6097066D01*
X-5234228Y-6098895D01*
X-5237784Y-6099556D01*
G37*

%LPD*%
G36*
X-3525113Y-5848350D02*
G01*
X-3790035Y-5850128D01*
X-3728313Y-5911850D01*
X-3728313Y-6216650D01*
X-3525113Y-6191250D01*
G37*
G36*
X-4025900Y-6070600D02*
G01*
X-4222750Y-6267450D01*
X-4089400Y-6400800D01*
X-3733800Y-6400800D01*
G37*
G36*
X-3505200Y2552700D02*
G01*
X-3505200Y2286000D01*
X-3378200Y2286000D01*
X-3289300Y2536444D01*
X-3488944Y2536444D01*
G37*
G36*
X-5156200Y-4876800D02*
G01*
X-5143500Y-5549900D01*
X-4749800Y-5549900D01*
X-4749800Y-4876800D01*
G37*
D10*
X-3809994Y1393444D02*
G01*
X-3936994Y1266444D01*
X-4734328Y1266444D01*
X-3302000Y377444D02*
G01*
X-3302000Y-257555D01*
X-3289300Y-257555D01*
D11*
X997341Y-4064000D02*
G01*
X1778000Y-4064000D01*
X1778000Y-2463800D01*
X2413000Y-1828800D01*
X2794000Y-1828800D01*
X2794000Y508000D01*
X2286000Y1016000D01*
X2286000Y1520444D01*
D12*
X1024105Y-4317992D02*
G01*
X-127002Y-4317992D01*
X-381000Y-4571989D01*
X-381000Y-5676889D01*
D11*
X2286000Y-5464553D02*
G01*
X2286000Y-5715000D01*
X1778000Y-6223000D01*
X393712Y-6223000D01*
X0Y-5829287D01*
X0Y-4686300D01*
X635000Y-4686300D01*
X1270000Y-5083553D02*
G01*
X254000Y-5083553D01*
X254000Y-5715000D01*
X2540000Y-1524000D02*
G01*
X1841500Y-1524000D01*
X1524000Y-1841500D01*
X1524000Y-3048000D01*
X1016000Y-3048000D01*
X1016000Y-2794000D02*
G01*
X1308100Y-2794000D01*
X1308100Y-1819655D01*
X1270000Y-1781555D01*
X899998Y-3809992D02*
G01*
X635000Y-3813555D01*
X635000Y-1400555D01*
X1266444Y-1400555D01*
X1562100Y-1104900D01*
X1562100Y-901700D01*
X1298955Y-638555D01*
X889000Y-638555D01*
D12*
X-2931160Y-1146555D02*
G01*
X-2931160Y-901700D01*
X-3848100Y-901700D01*
X-3975100Y-1028700D01*
D11*
X-4191000Y-388112D02*
G01*
X-4187444Y-388112D01*
X-3889755Y-685800D01*
X-2247900Y-685800D01*
X-2247900Y-1781555D01*
X-1388871Y-1781555D01*
X-4699000Y-4575555D02*
G01*
X-5321300Y-4575555D01*
X-5321300Y-2797555D01*
X-3848100Y-2797555D01*
X-3450844Y-2400300D01*
X-2060447Y-2400300D01*
X-1930394Y-2285994D01*
X-1389126Y-2289555D01*
X-4953000Y504444D02*
G01*
X-5308600Y504444D01*
X-5308600Y4965700D01*
X-508000Y4965700D01*
X-508000Y4162044D01*
X-4953000Y-1019555D02*
G01*
X-5461000Y-1019555D01*
X-5524500Y-956055D01*
X-5524500Y5089144D01*
X-5457444Y5156200D01*
X762000Y5156200D01*
X762000Y4060444D01*
X-4191000Y4691887D02*
G01*
X-4020312Y4521200D01*
X-1905000Y4521200D01*
X-1905000Y4445000D01*
X-4191000Y3167887D02*
G01*
X-3683000Y2659887D01*
X-3683000Y2057400D01*
X-2187955Y2057400D01*
X-1389126Y1258570D01*
X-1389126Y-1019555D01*
X-4191000Y627887D02*
G01*
X-3940555Y377444D01*
X-3683000Y377444D01*
X-3387344Y673100D01*
X-2032000Y673100D01*
X-2032000Y-1527555D01*
X-1389126Y-1527555D01*
X-4191000Y-3683000D02*
G01*
X-4191000Y-3559555D01*
X-3539744Y-2908300D01*
X-2142744Y-2908300D01*
X-1778000Y-2543555D01*
X-1388871Y-2543555D01*
D13*
X-1388871Y-2797555D02*
G01*
X-1392681Y-2794000D01*
X-1524000Y-2794000D01*
X-2159000Y-3429000D01*
X-2159000Y-3721100D01*
X-2921000Y-3721100D01*
X-2921000Y-3305555D01*
X-1523994Y2028441D02*
G01*
X-1523997Y2285994D01*
D11*
X-4191000Y-1912112D02*
G01*
X-3906012Y-2197100D01*
X-2320544Y-2197100D01*
X-2159000Y-2035555D01*
X-1389126Y-2035555D01*
X-1016000Y-4194555D02*
G01*
X-1016000Y-3686555D01*
X-508000Y-3686555D01*
X-508000Y-3178555D01*
X-1270000Y-3178555D01*
X2339086Y-130555D02*
G01*
X1397000Y-130555D01*
X1143000Y123444D01*
X498855Y123444D01*
X244855Y377444D01*
X0Y377444D01*
X0Y1647444D01*
X254000Y1520444D02*
G01*
X254000Y762000D01*
X1012444Y762000D01*
X1397000Y377444D01*
X2339086Y377444D01*
D14*
X-3047974Y4737100D02*
G01*
X-2794000Y4737100D01*
X-3048000Y3048000D02*
G01*
X-2797553Y3048000D01*
X-2793994Y3044441D01*
X-3047994Y377441D02*
G01*
X-2793994Y377441D01*
X-3047994Y-1146558D02*
G01*
X-2793994Y-1146558D01*
X-3047994Y-4194558D02*
G01*
X-2793994Y-4194558D01*
D11*
X1778000Y-5829300D02*
G01*
X1638330Y-5968969D01*
X1269987Y-5968969D01*
X2286000Y4060444D02*
G01*
X2286000Y3302000D01*
X-762000Y3302000D01*
X-1270000Y3810000D01*
X-1270000Y4572000D01*
X-1143000Y4572000D01*
X508000Y4060444D02*
G01*
X508000Y3599942D01*
X-678942Y3599942D01*
X-999997Y3920997D01*
X-999997Y4100068D01*
D10*
X-3809994Y3298444D02*
G01*
X-4063994Y3552444D01*
X-4734173Y3552598D01*
X-3809994Y-1781555D02*
G01*
X-4063994Y-1527555D01*
X-4734328Y-1527555D01*
X-3695700Y-1143000D02*
G01*
X-3826253Y-1273553D01*
X-4734328Y-1273553D01*
X-3289294Y1139492D02*
G01*
X-3416343Y1012444D01*
X-4734476Y1012598D01*
X-3809994Y758444D02*
G01*
X-4063994Y1012444D01*
X-3416343Y1012444D01*
X-3289294Y1139492D01*
X-4952994Y3806446D02*
G01*
X-3864353Y3806446D01*
X-3721100Y3949700D01*
D11*
X-4190994Y2666997D02*
G01*
X-4571994Y2666997D01*
X1015982Y1621947D02*
G01*
X1015982Y2159000D01*
X1892300Y2159000D01*
X507982Y1621944D02*
G01*
X507982Y2790436D01*
X2539987Y2790436D01*
X-368300Y2413000D02*
G01*
X-1016005Y2413000D01*
X-1016005Y-1527553D01*
X-508005Y-1527553D01*
X-4952994Y4314444D02*
G01*
X-4825987Y4314444D01*
X-4444994Y4695431D01*
X-4194535Y4695431D01*
X-4190994Y4691890D01*
X380994Y-2035555D02*
G01*
X-388993Y-2035555D01*
X-388993Y-2289555D02*
G01*
X126994Y-2289550D01*
X-4952994Y-4575555D02*
G01*
X-4695441Y-4575555D01*
X-4190994Y-5080002D01*
X-4952994Y-4321555D02*
G01*
X-4448545Y-4321555D01*
X-4190994Y-4579109D01*
X-4952994Y-3813555D02*
G01*
X-4822441Y-3813555D01*
X-4190994Y-3182109D01*
X-4952994Y-2035555D02*
G01*
X-4568441Y-2035555D01*
X-4190994Y-2413002D01*
X-4952994Y-1781555D02*
G01*
X-4321545Y-1781555D01*
X-4190994Y-1912109D01*
X-4952994Y-1019555D02*
G01*
X-4321545Y-1019555D01*
X-4190994Y-889002D01*
X-4952994Y-765555D02*
G01*
X-4825994Y-765555D01*
X-4444994Y-384555D01*
X-4194545Y-384555D01*
X-4190994Y-388109D01*
X-4952994Y758444D02*
G01*
X-4321545Y758444D01*
X-4190994Y627890D01*
X-4952994Y504444D02*
G01*
X-4568441Y504444D01*
X-4190994Y126997D01*
X-4952994Y3298444D02*
G01*
X-4321545Y3298444D01*
X-4190994Y3167890D01*
X-4190994Y1650997D02*
G01*
X-4441441Y1901444D01*
X-4444994Y1901444D01*
X-4952994Y-4575555D02*
G01*
X-4698994Y-4575555D01*
X-4952994Y1774444D02*
G01*
X-4952994Y2155436D01*
X-4444994Y2155436D01*
X-4194545Y2155436D01*
X-4190994Y2151890D01*
X-1388993Y-2797555D02*
G01*
X-889005Y-2797555D01*
X-889005Y-1781555D01*
X-491995Y-1781555D01*
X-4952994Y1520444D02*
G01*
X-4698994Y1520444D01*
X-4571994Y1647444D01*
X-4190994Y1650997D01*
D15*
X-4190994Y-6226533D02*
G01*
X-4318012Y-6353550D01*
X-4952994Y-6353550D01*
D11*
X-4952994Y3044444D02*
G01*
X-4568441Y3044444D01*
X-4190994Y2666997D01*
X-4952994Y4060444D02*
G01*
X-4698994Y4060444D01*
X-4568441Y4190997D01*
X-4190994Y4190997D01*
X-4952994Y-4067555D02*
G01*
X-4575545Y-4067555D01*
X-4190994Y-3683002D01*
X-4952994Y-3813555D02*
G01*
X-4952994Y-3432550D01*
X1524000Y1520444D02*
G01*
X1524000Y1143000D01*
X1016000Y1143000D01*
X1016000Y1012444D01*
X-508000Y-1273555D02*
G01*
X-762000Y-1273555D01*
X-762000Y2155444D01*
X0Y2155444D01*
X0Y2794000D01*
X-1143000Y2794000D01*
X-2155444Y3806444D01*
X-2155444Y4330700D01*
X-4051300Y4330700D01*
X-4191000Y4191000D01*
D16*
X-25Y4060342D02*
G01*
X0Y4060317D01*
X0Y3810000D01*
X254000Y4060317D02*
G01*
X254000Y3810000D01*
D11*
X-1905000Y4445000D02*
G01*
X-1905000Y4064000D01*
X-889000Y3048000D01*
X2895600Y3048000D01*
X2895600Y2536444D01*
X762000Y2536444D01*
X762000Y1622044D01*
X-4191000Y-4579112D02*
G01*
X-4044187Y-4432300D01*
X-2311400Y-4432300D01*
X-2159000Y-4279900D01*
X-1892300Y-4279900D01*
X-1739900Y-4432300D01*
X-618744Y-4432300D01*
X-250444Y-4064000D01*
X997341Y-4064000D01*
D15*
X-3428992Y-4775189D02*
G01*
X-3428994Y-5464533D01*
X-4190994Y-6226533D01*
D11*
X-1389126Y-1273555D02*
G01*
X-1778000Y-1273555D01*
X-1778000Y1012444D01*
X-2302255Y1536700D01*
X-3445255Y1536700D01*
X-3937000Y2028444D01*
X-4063992Y2158994D01*
X-4187444Y2155444D01*
X-4191000Y2151887D01*
X2794000Y-5829300D02*
G01*
X2794000Y-5083555D01*
X1270000Y-5083555D01*
X1270000Y-5480557D01*
D10*
X-3289292Y2552694D02*
G01*
X-3301992Y2565394D01*
X-3305700Y3294379D01*
D17*
X-3302000Y2536444D02*
G01*
X-3403600Y2536444D01*
X-3403600Y3196844D01*
X-3175000Y3425444D01*
X-2282444Y3425444D01*
X-1524000Y2667000D01*
D11*
X2540000Y4060444D02*
G01*
X2540000Y3679444D01*
X3302000Y3679444D01*
X3302000Y-1524000D01*
X-4953000Y-2035555D02*
G01*
X-5511800Y-2594355D01*
X-5511800Y-6781800D01*
X203200Y-6781800D01*
X508000Y-6477000D01*
X1778000Y-6477000D01*
X2095500Y-6794500D01*
X3048000Y-6794500D01*
X3048000Y1139444D01*
X2543556Y1139444D01*
X2540000Y1143000D01*
X2540000Y1520444D01*
D14*
X-3047994Y1774441D02*
G01*
X-2793994Y1774441D01*
D11*
X-253994Y1520444D02*
G01*
X-253994Y-130555D01*
X889005Y-130555D01*
D13*
X-3289294Y-3305555D02*
G01*
X-3289294Y-3940555D01*
X-1269994Y-3940555D01*
X-1270005Y-3958336D01*
D14*
X-3047994Y-2670558D02*
G01*
X-2793994Y-2670558D01*
D16*
X2793974Y1520342D02*
G01*
X2793974Y2031974D01*
X2794000Y2032000D01*
D11*
X2235200Y2019300D02*
G01*
X2781300Y2019300D01*
X2794000Y2032000D01*
X-1389019Y-2797555D02*
G01*
X-1523994Y-2797555D01*
X-388873Y-1778507D02*
G01*
X127000Y-1778507D01*
X127000Y-1616963D01*
X127000Y-1146555D01*
X889000Y-1146555D01*
X889005Y369443D02*
G01*
X1142994Y369443D01*
X1392976Y119456D01*
X2338981Y119456D01*
D12*
X2552694Y-2120894D02*
G01*
X2463794Y-2120894D01*
X2031994Y-2552694D01*
X2031994Y-4317992D01*
X1024105Y-4317992D01*
D18*
G01*
X2794000Y-5583554D03*
G01*
X2286000Y-5583554D03*
G01*
X1270000Y-5583554D03*
D19*
G01*
X1099997Y-3810000D03*
G01*
X1099997Y-3048000D03*
G01*
X1099997Y-2794000D03*
G01*
X-1388998Y-1019555D03*
G01*
X-1388998Y-1273555D03*
G01*
X-1388998Y-1527555D03*
G01*
X-1388998Y-1781555D03*
G01*
X-1388998Y-2035555D03*
G01*
X-1388998Y-2289555D03*
G01*
X-1388998Y-2543555D03*
G01*
X-1388998Y-2797555D03*
G01*
X-389001Y-1778558D03*
G01*
X-389001Y-2289555D03*
G01*
X-389001Y-2035555D03*
G01*
X-389001Y-1527555D03*
G01*
X-389001Y-1273555D03*
D20*
G01*
X254000Y-130555D03*
G01*
X254000Y377444D03*
G01*
X254000Y885444D03*
D21*
G01*
X2539974Y3940352D03*
G01*
X507974Y3940352D03*
G01*
X-508025Y3940352D03*
G01*
X2539974Y1621942D03*
G01*
X2285974Y1621942D03*
G01*
X1015974Y1621942D03*
G01*
X761974Y1621942D03*
G01*
X507974Y1621942D03*
G01*
X253974Y1621942D03*
G01*
X-25Y1621942D03*
G01*
X-254025Y1621942D03*
G01*
X761974Y3940352D03*
G01*
X1523974Y1621942D03*
G01*
X2285974Y3933342D03*
D15*
G01*
X-1981200Y-5737199D03*
G01*
X-1983206Y-4735195D03*
D22*
G01*
X2794000Y-4686554D03*
G01*
X2540000Y-4686554D03*
G01*
X1270000Y-4686554D03*
G01*
X1016000Y-4686554D03*
G01*
X2286000Y-4686554D03*
G01*
X2032000Y-4686554D03*
G01*
X1524000Y-4686554D03*
G01*
X1778000Y-4686554D03*
G01*
X1016000Y-5480557D03*
G01*
X1524000Y-5480557D03*
G01*
X1778000Y-5480557D03*
G01*
X2032000Y-5480557D03*
G01*
X2540000Y-5480557D03*
D23*
G01*
X889000Y-130555D03*
G01*
X889000Y369443D03*
D24*
G01*
X2338984Y-130555D03*
G01*
X2338984Y119456D03*
G01*
X2338984Y369443D03*
D25*
G01*
X1600200Y-511555D03*
G01*
X1600174Y733044D03*
D17*
G01*
X-127000Y-638555D03*
G01*
X889000Y-638555D03*
D26*
G01*
X-3301974Y4737100D03*
D27*
G01*
X-3047974Y4737100D03*
D26*
G01*
X-3302000Y1774444D03*
D27*
G01*
X-3048000Y1774444D03*
D26*
G01*
X-3302000Y-1146555D03*
D27*
G01*
X-3048000Y-1146555D03*
D26*
G01*
X-3302000Y-4194555D03*
D27*
G01*
X-3048000Y-4194555D03*
D26*
G01*
X-3301974Y3048000D03*
D27*
G01*
X-3048000Y3048000D03*
D26*
G01*
X-3302000Y-2670555D03*
D27*
G01*
X-3048000Y-2670555D03*
D26*
G01*
X-3302000Y377444D03*
D27*
G01*
X-3048000Y377444D03*
D26*
G01*
X-2794000Y4737100D03*
D27*
G01*
X-2540000Y4737100D03*
D26*
G01*
X-2794000Y1774444D03*
D27*
G01*
X-2540000Y1774444D03*
D26*
G01*
X-2794000Y-1146555D03*
D27*
G01*
X-2540000Y-1146555D03*
D26*
G01*
X-2794000Y-4194555D03*
D27*
G01*
X-2540000Y-4194555D03*
D26*
G01*
X-2794000Y3044444D03*
D27*
G01*
X-2540000Y3044444D03*
D26*
G01*
X-2794000Y-2670555D03*
D27*
G01*
X-2540000Y-2670555D03*
D26*
G01*
X-2794000Y377444D03*
D27*
G01*
X-2540000Y377444D03*
D28*
G01*
X-4953000Y3044444D03*
G01*
X-4953000Y3298444D03*
G01*
X-4953000Y3552444D03*
G01*
X-4953000Y3806444D03*
G01*
X-4953000Y4060444D03*
G01*
X-4953000Y4314444D03*
G01*
X-4953000Y504444D03*
G01*
X-4953000Y758444D03*
G01*
X-4953000Y1012444D03*
G01*
X-4953000Y1266444D03*
G01*
X-4953000Y1520444D03*
G01*
X-4953000Y1774444D03*
G01*
X-4953000Y-2035555D03*
G01*
X-4953000Y-1781555D03*
G01*
X-4953000Y-1527555D03*
G01*
X-4953000Y-1273555D03*
G01*
X-4953000Y-1019555D03*
G01*
X-4953000Y-765555D03*
G01*
X-4953000Y-5210555D03*
G01*
X-4953000Y-5464555D03*
G01*
X-4953000Y-5718555D03*
G01*
X-4953000Y-5972555D03*
G01*
X-4953000Y-6226555D03*
G01*
X-4953000Y-6480555D03*
G01*
X-4953000Y-4575555D03*
G01*
X-4953000Y-4321555D03*
G01*
X-4953000Y-4067555D03*
G01*
X-4953000Y-3813555D03*
D26*
G01*
X-762000Y-3429000D03*
D27*
G01*
X-1015974Y-3429000D03*
G01*
X-1269974Y-3429000D03*
G01*
X-1523974Y-3429000D03*
G01*
X-1524000Y-4194555D03*
G01*
X-1270000Y-4194555D03*
D26*
G01*
X-1016000Y-4194555D03*
D27*
G01*
X-761974Y-5207000D03*
G01*
X-1015974Y-5207000D03*
D26*
G01*
X-1270000Y-5207000D03*
D27*
G01*
X-761974Y-4699000D03*
G01*
X-1015974Y-4699000D03*
D26*
G01*
X-1270000Y-4699000D03*
D29*
G01*
X761974Y-6730974D03*
G01*
X1269974Y-6730974D03*
G01*
X1269974Y-5968974D03*
G01*
X761974Y-5968974D03*
D30*
G01*
X-2552700Y3933469D03*
G01*
X-3289300Y3933469D03*
G01*
X-2921000Y3933469D03*
G01*
X-2552700Y1139494D03*
G01*
X-3289300Y1139494D03*
G01*
X-2921000Y1139494D03*
G01*
X-2552700Y-1781555D03*
G01*
X-3289300Y-1781555D03*
G01*
X-2921000Y-1781555D03*
G01*
X-2552700Y-4829555D03*
G01*
X-3289300Y-4829555D03*
G01*
X-2921000Y-4829555D03*
G01*
X-2552700Y2536444D03*
G01*
X-3289300Y2536444D03*
G01*
X-2921000Y2536444D03*
G01*
X-2552700Y-3305555D03*
G01*
X-3289300Y-3305555D03*
G01*
X-2921000Y-3305555D03*
G01*
X-2552700Y-257606D03*
G01*
X-3289300Y-257606D03*
G01*
X-2921000Y-257606D03*
D17*
G01*
X1270000Y-1781555D03*
G01*
X1270000Y-1019555D03*
G01*
X2032000Y-1781555D03*
G01*
X2032000Y-1019555D03*
G01*
X2540000Y-1524000D03*
G01*
X3302000Y-1524000D03*
D31*
G01*
X2540000Y-3810000D03*
G01*
X2540000Y-3556000D03*
G01*
X2540000Y-3302000D03*
G01*
X2540000Y-3048000D03*
G01*
X2540000Y-2794000D03*
G01*
X2540000Y-2540000D03*
G01*
X1016000Y-2540000D03*
G01*
X1016000Y-3302000D03*
G01*
X1016000Y-3556000D03*
D17*
G01*
X-4191000Y4691887D03*
G01*
X-4191000Y4191000D03*
G01*
X-4191000Y2151887D03*
G01*
X-4191000Y1651000D03*
G01*
X-4191000Y-388112D03*
G01*
X-4191000Y-889000D03*
G01*
X-4191000Y-5080000D03*
G01*
X-4191000Y-4579112D03*
G01*
X-4191000Y3167887D03*
G01*
X-4191000Y2667000D03*
G01*
X-4191000Y627887D03*
G01*
X-4191000Y127000D03*
G01*
X-4191000Y-1912112D03*
G01*
X-4191000Y-2413000D03*
G01*
X-4191000Y-3683000D03*
G01*
X-4191000Y-3182112D03*
D32*
G01*
X-1342644Y-6083274D03*
G01*
X-841755Y-6083274D03*
G01*
X-2556255Y-6083300D03*
G01*
X-3057144Y-6083300D03*
D33*
G01*
X-508000Y-2797555D03*
G01*
X-508000Y-2543555D03*
G01*
X-508000Y-1019555D03*
D17*
G01*
X2794000Y-5829300D03*
G01*
X1778000Y-5829300D03*
G01*
X-508000Y-130555D03*
G01*
X-508000Y377444D03*
G01*
X-508000Y885444D03*
D18*
G01*
X3047974Y4060342D03*
G01*
X2793974Y4060342D03*
G01*
X2031974Y4060342D03*
G01*
X1777974Y4060342D03*
G01*
X1523974Y4060342D03*
G01*
X1269974Y4060342D03*
G01*
X1015974Y4060342D03*
G01*
X253974Y4060342D03*
G01*
X-25Y4060342D03*
G01*
X-254025Y4060342D03*
G01*
X3047974Y1520342D03*
G01*
X2793974Y1520342D03*
G01*
X2031974Y1520342D03*
G01*
X1777974Y1520342D03*
G01*
X1269974Y1520342D03*
G01*
X-508025Y1520342D03*
D29*
G01*
X-1270000Y-3940555D03*
G01*
X-1524000Y2666974D03*
G01*
X-4445000Y1901444D03*
G01*
X1270000Y1901444D03*
G01*
X126974Y-2289555D03*
G01*
X-999997Y4099991D03*
G01*
X-3302000Y130632D03*
G01*
X-508000Y123444D03*
G01*
X254000Y-5714974D03*
G01*
X-1524000Y-2797555D03*
G01*
X635000Y-4686300D03*
G01*
X-368300Y2413000D03*
G01*
X381000Y-2035555D03*
D33*
G01*
X-1270000Y-3178555D03*
D29*
G01*
X2540000Y2790444D03*
G01*
X1892300Y2158974D03*
G01*
X1016000Y1012444D03*
G01*
X-4445000Y3933418D03*
G01*
X-4445000Y1393444D03*
D34*
G01*
X-5461000Y-1654555D03*
G01*
X-5461000Y-1273555D03*
D35*
G01*
X-4064000Y-1273555D03*
D34*
G01*
X-4064000Y-5464530D03*
G01*
X-4572000Y-5845530D03*
G01*
X-5207000Y-5845530D03*
D29*
G01*
X889000Y-1146555D03*
D15*
G01*
X-3721100Y3949700D03*
G01*
X-3810000Y3298444D03*
G01*
X-3810000Y1393444D03*
G01*
X-3810000Y758444D03*
G01*
X-3695700Y-1143000D03*
G01*
X-3810000Y-1781555D03*
G01*
X-3733800Y-6197600D03*
G01*
X-4445000Y-5464555D03*
D34*
G01*
X-5080000Y-4956530D03*
G01*
X-4191000Y-6226530D03*
D36*
G01*
X-4064000Y3425444D03*
D29*
G01*
X-4699000Y-4321555D03*
G01*
X-4699000Y-4575555D03*
G01*
X-4953000Y-3432555D03*
G01*
X2235174Y2019274D03*
G01*
X-1524000Y2028444D03*
G01*
X2793974Y2031974D03*
G01*
X-4572000Y2667000D03*
D37*
G01*
X-2921000Y2286000D03*
D38*
G01*
X-1524000Y2286000D03*
D29*
G01*
X-1143000Y4572000D03*
D39*
G01*
X0Y3810000D03*
G01*
X254000Y3810000D03*
D29*
G01*
X-4114800Y901700D03*
G01*
X-3505200Y-1892300D03*
G01*
X2552700Y-2120900D03*
G01*
X1024102Y-4318000D03*
G01*
X-381000Y-5676900D03*
D37*
G01*
X-2959100Y-5435600D03*
M02*
