G04 Layer: BottomSolderMaskLayer*
G04 EasyEDA v6.5.22, 2022-12-11 22:38:22*
G04 16a389ef0e6e420cbb75d7452a4fa289,4d866ca34c7e4626bfa8f39187415ab3,10*
G04 Gerber Generator version 0.2*
G04 Scale: 100 percent, Rotated: No, Reflected: No *
G04 Dimensions in millimeters *
G04 leading zeros omitted , absolute positions ,4 integer and 5 decimal *
%FSLAX45Y45*%
%MOMM*%

%AMMACRO1*1,1,$1,$2,$3*1,1,$1,$4,$5*1,1,$1,0-$2,0-$3*1,1,$1,0-$4,0-$5*20,1,$1,$2,$3,$4,$5,0*20,1,$1,$4,$5,0-$2,0-$3,0*20,1,$1,0-$2,0-$3,0-$4,0-$5,0*20,1,$1,0-$4,0-$5,$2,$3,0*4,1,4,$2,$3,$4,$5,0-$2,0-$3,0-$4,0-$5,$2,$3,0*%
%ADD10C,4.1020*%
%ADD11MACRO1,0.102X0.8X1.25X0.8X-1.25*%
%ADD12MACRO1,0.102X-1.1X-1.1X-1.1X1.1*%
%ADD13MACRO1,0.102X-2.5X-0.75X-2.5X0.75*%
%ADD14C,3.1020*%
%ADD15C,2.2032*%
%ADD16MACRO1,0.102X0.7875X0.7875X0.7875X-0.7875*%
%ADD17C,1.6770*%
%ADD18MACRO1,0.102X2X0.85X2X-0.85*%
%ADD19MACRO1,0.1016X2X0.85X2X-0.85*%
%ADD20MACRO1,0.102X-2X-0.85X-2X0.85*%
%ADD21MACRO1,0.102X0.7875X-0.7875X-0.7875X-0.7875*%
%ADD22MACRO1,0.102X-0.7875X0.7875X0.7875X0.7875*%
%ADD23MACRO1,0.102X-0.8X-0.8X-0.8X0.8*%
%ADD24MACRO1,0.204X1.35X-2.5X-1.35X-2.5*%
%ADD25MACRO1,0.2032X1.35X-2.5X-1.35X-2.5*%
%ADD26MACRO1,0.102X-1.4X0.8X1.4X0.8*%
%ADD27C,2.1020*%
%ADD28MACRO1,0.102X-1.75X2.5X1.75X2.5*%
%ADD29MACRO1,0.102X1.75X-2.5X-1.75X-2.5*%
%ADD30MACRO1,0.102X-1.1X0.8X1.1X0.8*%
%ADD31MACRO1,0.102X0.8X1.5X0.8X-1.5*%
%ADD32R,1.7020X1.7020*%
%ADD33MACRO1,0.102X0.8X0.8X0.8X-0.8*%
%ADD34MACRO1,0.102X-0.8X0.8X0.8X0.8*%
%ADD35MACRO1,0.102X-0.6X0.8X0.6X0.8*%
%ADD36MACRO1,0.102X-0.6X0.6X0.6X0.6*%
%ADD37MACRO1,0.102X-0.6X0.7X0.6X0.7*%
%ADD38C,1.6256*%
%ADD39MACRO1,0.102X-0.762X0.762X0.762X0.762*%
%ADD40MACRO1,0.2032X0.75X0.75X0.75X-0.75*%
%ADD41C,1.7272*%
%ADD42C,0.0158*%

%LPD*%
D10*
G01*
X-1981200Y-5737199D03*
G01*
X-1983206Y-4735195D03*
D11*
G01*
X2794000Y-4686554D03*
G01*
X2540000Y-4686554D03*
G01*
X1270000Y-4686554D03*
G01*
X1016000Y-4686554D03*
G01*
X2286000Y-4686554D03*
G01*
X2032000Y-4686554D03*
G01*
X1524000Y-4686554D03*
G01*
X1778000Y-4686554D03*
G01*
X1016000Y-5480559D03*
G01*
X1524000Y-5480559D03*
G01*
X1778000Y-5480559D03*
G01*
X2032000Y-5480559D03*
G01*
X2540000Y-5480559D03*
D12*
G01*
X889000Y-130555D03*
G01*
X889000Y369443D03*
D13*
G01*
X2338984Y-130557D03*
G01*
X2338989Y119452D03*
G01*
X2338984Y369441D03*
D14*
G01*
X1600200Y-511555D03*
G01*
X1600174Y733044D03*
D15*
G01*
X-127000Y-638555D03*
G01*
X889000Y-638555D03*
D16*
G01*
X-3301987Y4737100D03*
D17*
G01*
X-3047974Y4737100D03*
D16*
G01*
X-3301994Y1774441D03*
D17*
G01*
X-3048000Y1774444D03*
D16*
G01*
X-3301994Y-1146558D03*
D17*
G01*
X-3048000Y-1146555D03*
D16*
G01*
X-3301994Y-4194558D03*
D17*
G01*
X-3048000Y-4194555D03*
D16*
G01*
X-3301987Y3048002D03*
D17*
G01*
X-3048000Y3048000D03*
D16*
G01*
X-3301994Y-2670558D03*
D17*
G01*
X-3048000Y-2670555D03*
D16*
G01*
X-3301994Y377441D03*
D17*
G01*
X-3048000Y377444D03*
D16*
G01*
X-2793994Y4737089D03*
D17*
G01*
X-2540000Y4737100D03*
D16*
G01*
X-2793994Y1774441D03*
D17*
G01*
X-2540000Y1774444D03*
D16*
G01*
X-2793994Y-1146558D03*
D17*
G01*
X-2540000Y-1146555D03*
D16*
G01*
X-2793994Y-4194558D03*
D17*
G01*
X-2540000Y-4194555D03*
D16*
G01*
X-2793994Y3044441D03*
D17*
G01*
X-2540000Y3044444D03*
D16*
G01*
X-2793994Y-2670558D03*
D17*
G01*
X-2540000Y-2670555D03*
D16*
G01*
X-2793994Y377441D03*
D17*
G01*
X-2540000Y377444D03*
D18*
G01*
X-4952994Y3044440D03*
G01*
X-4952994Y3298440D03*
G01*
X-4952994Y3552440D03*
G01*
X-4952994Y3806440D03*
G01*
X-4952994Y4060440D03*
D19*
G01*
X-4952994Y4314440D03*
D18*
G01*
X-4952994Y504440D03*
G01*
X-4952994Y758440D03*
G01*
X-4952994Y1012440D03*
G01*
X-4952994Y1266440D03*
G01*
X-4952994Y1520440D03*
G01*
X-4952994Y1774440D03*
G01*
X-4952994Y-2035557D03*
G01*
X-4952994Y-1781557D03*
G01*
X-4952994Y-1527557D03*
G01*
X-4952994Y-1273557D03*
G01*
X-4952994Y-1019557D03*
G01*
X-4952994Y-765557D03*
D20*
G01*
X-4952994Y-5210549D03*
G01*
X-4952994Y-5464549D03*
G01*
X-4952994Y-5718549D03*
G01*
X-4952994Y-5972549D03*
G01*
X-4952994Y-6226549D03*
G01*
X-4952994Y-6480549D03*
G01*
X-4952994Y-4575552D03*
G01*
X-4952994Y-4321552D03*
G01*
X-4952994Y-4067552D03*
G01*
X-4952994Y-3813552D03*
D21*
G01*
X-761989Y-3429000D03*
D17*
G01*
X-1015974Y-3429000D03*
G01*
X-1269974Y-3429000D03*
G01*
X-1523974Y-3429000D03*
G01*
X-1524000Y-4194555D03*
G01*
X-1270000Y-4194555D03*
D21*
G01*
X-1016002Y-4194550D03*
D17*
G01*
X-761974Y-5207000D03*
G01*
X-1015974Y-5207000D03*
D22*
G01*
X-1269989Y-5207000D03*
D17*
G01*
X-761974Y-4699000D03*
G01*
X-1015974Y-4699000D03*
D22*
G01*
X-1269989Y-4699000D03*
D23*
G01*
X761984Y-6730972D03*
G01*
X1269984Y-6730972D03*
G01*
X1269984Y-5968972D03*
G01*
X761984Y-5968972D03*
D24*
G01*
X-2552693Y3933466D03*
G01*
X-3289293Y3933466D03*
G01*
X-2920993Y3933466D03*
G01*
X-2552693Y1139492D03*
G01*
X-3289293Y1139492D03*
G01*
X-2920993Y1139492D03*
G01*
X-2552693Y-1781558D03*
G01*
X-3289293Y-1781558D03*
G01*
X-2920993Y-1781558D03*
G01*
X-2552693Y-4829558D03*
G01*
X-3289293Y-4829558D03*
G01*
X-2920993Y-4829558D03*
G01*
X-2552693Y2536441D03*
G01*
X-3289293Y2536441D03*
G01*
X-2920993Y2536441D03*
D25*
G01*
X-2552693Y-3305558D03*
G01*
X-3289293Y-3305558D03*
G01*
X-2920993Y-3305558D03*
D24*
G01*
X-2552693Y-257609D03*
G01*
X-3289293Y-257609D03*
G01*
X-2920993Y-257609D03*
D15*
G01*
X1270000Y-1781555D03*
G01*
X1270000Y-1019555D03*
G01*
X2032000Y-1781555D03*
G01*
X2032000Y-1019555D03*
G01*
X2540000Y-1524000D03*
G01*
X3302000Y-1524000D03*
D26*
G01*
X2539997Y-3810000D03*
G01*
X2539997Y-3556000D03*
G01*
X2539997Y-3302000D03*
G01*
X2539997Y-3048000D03*
G01*
X2539997Y-2794000D03*
G01*
X2539997Y-2540000D03*
G01*
X1016000Y-2540000D03*
G01*
X1016000Y-3302000D03*
G01*
X1016000Y-3556000D03*
D27*
G01*
X-4191000Y4691887D03*
G01*
X-4191000Y4191000D03*
G01*
X-4191000Y2151887D03*
G01*
X-4191000Y1651000D03*
G01*
X-4191000Y-388112D03*
G01*
X-4191000Y-889000D03*
G01*
X-4191000Y-5080000D03*
G01*
X-4191000Y-4579112D03*
G01*
X-4191000Y3167887D03*
G01*
X-4191000Y2667000D03*
G01*
X-4191000Y627887D03*
G01*
X-4191000Y127000D03*
G01*
X-4191000Y-1912112D03*
G01*
X-4191000Y-2413000D03*
G01*
X-4191000Y-3683000D03*
G01*
X-4191000Y-3182112D03*
D28*
G01*
X-1342640Y-6083274D03*
G01*
X-841754Y-6083274D03*
D29*
G01*
X-2556252Y-6083300D03*
G01*
X-3057137Y-6083300D03*
D30*
G01*
X-507992Y-2797556D03*
G01*
X-507992Y-2543556D03*
G01*
X-507992Y-1019556D03*
D15*
G01*
X2794000Y-5829300D03*
G01*
X1778000Y-5829300D03*
G01*
X-508000Y-130555D03*
G01*
X-508000Y377444D03*
G01*
X-508000Y885444D03*
D31*
G01*
X3047974Y4060342D03*
G01*
X2793974Y4060342D03*
G01*
X2031974Y4060342D03*
G01*
X1777974Y4060342D03*
G01*
X1523974Y4060342D03*
G01*
X1269974Y4060342D03*
G01*
X1015974Y4060342D03*
G01*
X253974Y4060342D03*
G01*
X-25Y4060342D03*
G01*
X-254025Y4060342D03*
G01*
X3047974Y1520342D03*
G01*
X2793974Y1520342D03*
G01*
X2031974Y1520342D03*
G01*
X1777974Y1520342D03*
G01*
X1269974Y1520342D03*
G01*
X-508025Y1520342D03*
D32*
G01*
X-1270000Y-3940555D03*
D33*
G01*
X-1524005Y2666987D03*
G01*
X-4444997Y1901436D03*
G01*
X1269992Y1901436D03*
G01*
X126984Y-2289548D03*
G01*
X-1000005Y4099984D03*
G01*
X-3301994Y130629D03*
G01*
X-508005Y123441D03*
G01*
X253994Y-5714984D03*
D32*
G01*
X-1524000Y-2797555D03*
D33*
G01*
X635007Y-4686297D03*
D32*
G01*
X-368300Y2413000D03*
D33*
G01*
X380994Y-2035556D03*
D34*
G01*
X-1270000Y-3178556D03*
G01*
X2539989Y2790436D03*
G01*
X1892289Y2158987D03*
G01*
X1015992Y1012438D03*
G01*
X-4444997Y3933426D03*
G01*
X-4445002Y1393436D03*
D35*
G01*
X-5460994Y-1654553D03*
G01*
X-5460994Y-1273556D03*
D36*
G01*
X-4063997Y-1273555D03*
D35*
G01*
X-4063997Y-5464538D03*
G01*
X-4571994Y-5845535D03*
G01*
X-5206994Y-5845538D03*
D34*
G01*
X889005Y-1146558D03*
D10*
G01*
X-3721100Y3949700D03*
G01*
X-3810000Y3298444D03*
G01*
X-3810000Y1393444D03*
G01*
X-3810000Y758444D03*
G01*
X-3695700Y-1143000D03*
G01*
X-3810000Y-1781555D03*
G01*
X-3733800Y-6197600D03*
G01*
X-4445000Y-5464555D03*
D35*
G01*
X-5079994Y-4956538D03*
G01*
X-4190997Y-6226535D03*
D37*
G01*
X-4063997Y3425433D03*
D34*
G01*
X-4698994Y-4321550D03*
G01*
X-4698994Y-4575550D03*
G01*
X-4952994Y-3432550D03*
G01*
X2235184Y2019287D03*
G01*
X-1524002Y2028436D03*
G01*
X2793984Y2031987D03*
D33*
G01*
X-4571997Y2666994D03*
D38*
G01*
X-2921000Y2286000D03*
D39*
G01*
X-1523997Y2285994D03*
D34*
G01*
X-1142997Y4571989D03*
D40*
G01*
X1Y3809991D03*
G01*
X254001Y3809991D03*
D34*
G01*
X-4114792Y901697D03*
G01*
X-3505192Y-1892297D03*
G01*
X2552694Y-2120894D03*
G01*
X1024105Y-4317992D03*
G01*
X-381000Y-5676889D03*
D41*
G01*
X-2959100Y-5435600D03*
D34*
G01*
X-1016000Y-3934716D03*
G01*
X-4952987Y4749791D03*
G01*
X-2019292Y4724396D03*
M02*
