M48
METRIC,LZ,000.000
;FILE_FORMAT=3:3
;TYPE=PLATED
;Layer: PTH_Through
;EasyEDA v6.5.22, 2022-11-10 15:31:46
;b7be4e29126e4417a89479274d17f270,4d866ca34c7e4626bfa8f39187415ab3,10
;Gerber Generator version 0.2
;Holesize 1 = 0.811 mm
T01C0.811
;Holesize 2 = 1.000 mm
T02C1.000
;Holesize 3 = 1.040 mm
T03C1.040
;Holesize 4 = 1.301 mm
T04C1.301
;Holesize 5 = 2.000 mm
T05C2.000
;Holesize 6 = 2.200 mm
T06C2.200
%
G05
G90
T01
X-001270Y-006386
X008890Y-006386
X-033020Y047371
X-030480Y047371
X-033020Y017744
X-030480Y017744
X-033020Y-011466
X-030480Y-011466
X-033020Y-041946
X-030480Y-041946
X-033020Y030480
X-030480Y030480
X-033020Y-026706
X-030480Y-026706
X-033020Y003774
X-030480Y003774
X-027940Y047371
X-025400Y047371
X-027940Y017744
X-025400Y017744
X-027940Y-011466
X-025400Y-011466
X-027940Y-041946
X-025400Y-041946
X-027940Y030444
X-025400Y030444
X-027940Y-026706
X-025400Y-026706
X-027940Y003774
X-025400Y003774
X-007620Y-034290
X-010160Y-034290
X-012700Y-034290
X-015240Y-034290
X-015240Y-041945
X-012700Y-041945
X-010160Y-041945
X-007620Y-052070
X-010160Y-052070
X-012700Y-052070
X-007620Y-046990
X-010160Y-046990
X-012700Y-046990
X007620Y-067310
X012700Y-067310
X012700Y-059690
X007620Y-059690
X012700Y-017816
X012700Y-010196
X020320Y-017816
X020320Y-010196
X025400Y-015240
X033020Y-015240
X-041910Y046919
X-041910Y041910
X-041910Y021519
X-041910Y016510
X-041910Y-003881
X-041910Y-008890
X-041910Y-050800
X-041910Y-045791
X-041910Y031679
X-041910Y026670
X-041910Y006279
X-041910Y001270
X-041910Y-019121
X-041910Y-024130
X-041910Y-036830
X-041910Y-031821
X027940Y-058293
X017780Y-058293
X-005080Y-001306
X-005080Y003774
X-005080Y008854
X-012700Y-039406
X-015240Y026670
X-044450Y019015
X012700Y019015
X001270Y-022895
X-010000Y041000
X-033020Y001306
X-005080Y001234
X002540Y-057150
X-015240Y-027975
X006350Y-046863
X-003683Y024130
X003810Y-020356
X025400Y027904
X018923Y021590
X010160Y010124
X-044450Y039334
X-044451Y013934
X-054610Y-016546
X-054610Y-012736
X-040640Y-012736
X-040640Y-054645
X-045720Y-058455
X-052070Y-058455
X008890Y-011466
X-050800Y-049565
X-041910Y-062265
X-040640Y034254
X-046990Y-043215
X-046990Y-045755
X-049530Y-034325
X022351Y020193
X-015240Y020284
X027939Y020320
X-045720Y026670
X-029210Y022860
X-015240Y022860
X-011430Y045720
X000000Y038100
X002540Y038100
X-041148Y009017
X-035052Y-018923
X025527Y-021209
X010241Y-043180
X-003810Y-056769
X-029591Y-054356
T02
X027940Y-046866
X025400Y-046866
X012700Y-046866
X010160Y-046866
X022860Y-046866
X020320Y-046866
X015240Y-046866
X017780Y-046866
X010160Y-054806
X015240Y-054806
X017780Y-054806
X020320Y-054806
X025400Y-054806
X-005080Y-027976
X-005080Y-025436
X-005080Y-010196
X-012700Y-031786
T03
X030480Y040606G85X030480Y040601
X027940Y040606G85X027940Y040601
X020320Y040606G85X020320Y040601
X017780Y040606G85X017780Y040601
X015240Y040606G85X015240Y040601
X012700Y040606G85X012700Y040601
X010160Y040606G85X010160Y040601
X002540Y040606G85X002540Y040601
X-000000Y040606G85X-000000Y040601
X-002540Y040606G85X-002540Y040601
X030480Y015206G85X030480Y015201
X027940Y015206G85X027940Y015201
X020320Y015206G85X020320Y015201
X017780Y015206G85X017780Y015201
X012700Y015206G85X012700Y015201
X-005080Y015206G85X-005080Y015201
T04
X-019812Y-057372
X-019832Y-047352
X008890Y-001338G85X008890Y-001273
X008890Y003662G85X008890Y003727
X023422Y-001306G85X023357Y-001306
X023422Y001195G85X023357Y001195
X023422Y003694G85X023357Y003694
X-049530Y030444
X-049530Y032984
X-049530Y035524
X-049530Y038064
X-049530Y040604
X-049530Y043144
X-049530Y005044
X-049530Y007584
X-049530Y010124
X-049530Y012664
X-049530Y015204
X-049530Y017744
X-049530Y-020356
X-049530Y-017816
X-049530Y-015276
X-049530Y-012736
X-049530Y-010196
X-049530Y-007656
X-049530Y-052105
X-049530Y-054645
X-049530Y-057185
X-049530Y-059725
X-049530Y-062265
X-049530Y-064805
X-049530Y-045756
X-049530Y-043216
X-049530Y-040676
X-049530Y-038136
X-025527Y011395
X-032893Y011395
X-029210Y011395
X-025527Y-017816
X-032893Y-017816
X-029210Y-017816
X-025527Y-048295
X-032893Y-048295
X-029210Y-048295
X-025527Y025364
X-032893Y025364
X-029210Y025364
X-025527Y-033056
X-032893Y-033056
X-029210Y-033056
X-025527Y-002576
X-032893Y-002576
X-029210Y-002576
X025400Y-038100
X025400Y-035560
X025400Y-033020
X025400Y-030480
X025400Y-027940
X025400Y-025400
X010160Y-025400
X010160Y-033020
X010160Y-035560
X-013426Y-060833
X-008418Y-060833
X-025563Y-060833
X-030571Y-060833
T05
X-037211Y039497
X-038100Y032984
X-038100Y013934
X-038100Y007584
X-036957Y-011430
X-038100Y-017816
X-037338Y-061976
X-044450Y-054645
T06
X016002Y-005116
X016002Y007330
M30
